<svg xmlns="http://www.w3.org/2000/svg" width="615.389" height="584.801" viewBox="0 0 615.389 584.801">
  <g id="Group_356" data-name="Group 356" transform="translate(-970.386 -248.647)">
    <ellipse id="Path" cx="27.975" cy="28.159" rx="27.975" ry="28.159" transform="translate(1490.31 392.839)" fill="#3c3c3c" stroke="#707070" stroke-width="1"/>
    <path id="Path-2" data-name="Path" d="M728.577,695.125l5.321,22.956H720.975l-5.321-26.017Z" transform="translate(819.887 78.744)" fill="#737373" stroke="#707070" stroke-width="1"/>
    <path id="Path-3" data-name="Path" d="M820.663,451.222s-1.52,32.9-3.041,35.2-15.2,35.2-15.2,35.2l-6.842-21.426s10.643-17.6,9.122-27.547-.562-22.189-.562-22.189Z" transform="translate(731.602 79.313)" fill="#737373" stroke="#707070" stroke-width="1"/>
    <ellipse id="Path-4" data-name="Path" cx="21.285" cy="21.426" rx="21.285" ry="21.426" transform="translate(1487.649 408.103)" fill="#737373" stroke="#707070" stroke-width="1"/>
    <path id="Path-5" data-name="Path" d="M786.423,322.456s-.76,30.608,4.561,35.2-30.407.765-30.407.765,7.6-21.426,1.521-26.017S786.423,322.456,786.423,322.456Z" transform="translate(739.996 109.368)" fill="#737373" stroke="#707070" stroke-width="1"/>
    <path id="Path-6" data-name="Path" d="M819.9,383.456l4.009,2.747s2.833,49.287.552,52.348-18.136,1.567-19.33-1.13S819.9,383.456,819.9,383.456Z" transform="translate(729.327 95.045)" fill="#3d3d3d" stroke="#707070" stroke-width="1"/>
    <path id="Path-7" data-name="Path" d="M820.671,781.255s.76,8.571,3.041,10.867,8.362,5.356,7.6,13.774-5.7,8.8-5.7,8.8l.38-1.913-2.281.765-.38,1.148H802.047s-.38-8.035.38-11.861.76-22.191,3.041-21.426,8.362,1.531,9.882,4.591S821.432,787.988,820.671,781.255Z" transform="translate(730.074 1.643)" fill="#3d3d3d" stroke="#707070" stroke-width="1"/>
    <g id="Group_355" data-name="Group 355">
      <path id="Path-8" data-name="Path" d="M153.453,127.446c13,.962,18.921,13.082,61.811-10.341S289.072-8.493,363.105.567,470.888,51.279,483.389,126.392,465.2,240.807,457.157,285.731s-80.1,105.222-190.9,56.67-149.471-40.789-203.335-28.93-88.6-50.956-39.047-126.324S140.453,126.484,153.453,127.446Z" transform="matrix(0.788, -0.616, 0.616, 0.788, 971.108, 548.737)" fill="#cfcfcf" stroke="#707070" stroke-width="1"/>
      <path id="Path-9" data-name="Path" d="M240.192,182.772H423.105A38.94,38.94,0,0,1,461.037,213.3l92.422,412.648a31.8,31.8,0,0,1-5.637,26.1A31.366,31.366,0,0,1,524.348,664.5L336.313,673.83a41.578,41.578,0,0,1-42.9-34.3L240.988,347.781l-3.9,1.122-10.032-55.3,4.015-1.01-14.634-81.437a24.213,24.213,0,0,1,5.248-19.815A23.876,23.876,0,0,1,240.192,182.772Z" transform="translate(870.58 142.166)" fill="#3c3c3c" stroke="#707070" stroke-width="1"/>
      <path id="Path-10" data-name="Path" d="M404.72,194.4h21.351a26.913,26.913,0,0,1,26.254,21.283l88.713,409.282a16.847,16.847,0,0,1-2.965,13.653,16.621,16.621,0,0,1-12.214,6.645L338.431,657.624A21.593,21.593,0,0,1,315.8,639.812L240.1,216.779a19.1,19.1,0,0,1,4.1-15.564,18.838,18.838,0,0,1,14.491-6.818h20.255a8.924,8.924,0,0,1,8.607,6.64h0a7.878,7.878,0,0,0,7.6,5.862h96.158a13.488,13.488,0,0,0,13.412-12.5Z" transform="translate(864.885 139.436)" fill="#cfcfcf" stroke="#707070" stroke-width="1"/>
      <path id="Path-11" data-name="Path" d="M646.577,696.064V717.49l-12.923,1.531V696.064Z" transform="translate(839.552 77.805)" fill="#737373" stroke="#707070" stroke-width="1"/>
      <path id="Path-12" data-name="Path" d="M743.221,365.093s4.561-8.417,10.642-7.652,25.847,2.3,26.607,3.826,3.041,6.887,4.561,8.417,12.923,3.826,13.683,13.009-27.367,65.042-27.367,65.042,3.8,13.008,3.041,16.069,3.8,12.243,3.041,16.069,11.4,26.782,5.321,56.625v48.208s20.525,83.407,14.444,89.529-26.606,2.3-30.408,0-19.765-117.841-19.765-117.841l-7.6-39.025-.76,85.7s1.52,71.929-3.8,74.225-25.846,3.061-27.367-1.531c-1.186-3.581-7-98.855-9.5-140.618a157.022,157.022,0,0,1,3.347-42.985c3.164-14.445,7.757-31.417,12.99-38.3,9.882-13.008,15.964-54.329,15.964-54.329l-12.923-23.721s7.6-7.652,12.163-7.652S743.221,365.093,743.221,365.093Z" transform="translate(755.071 101.165)" fill="#3d3d3d" stroke="#707070" stroke-width="1"/>
      <path id="Path-13" data-name="Path" d="M713.745,440.707c2.225,15.539,4.175,29.371-7.2,41.885a213.906,213.906,0,0,1-38.415,33.494c-1.4,3.721-21.882,31.046-22.924,20.146s6.036-19.444,16.094-28.662,24.13-29.216,32.07-40.189,4.671-17.816,4.4-26.982S710.624,440.818,713.745,440.707Z" transform="translate(767.688 82.607)" fill="#737373" stroke="#707070" stroke-width="1"/>
      <path id="Path-14" data-name="Path" d="M721.2,781.255s-.76,8.571-3.041,10.867-8.362,5.356-7.6,13.774,5.7,8.8,5.7,8.8l-.38-1.913,2.281.765.38,1.148h21.285s.38-8.035-.38-11.861-.76-22.191-3.041-21.426-8.362,1.531-9.882,4.591S720.439,787.988,721.2,781.255Z" transform="translate(752.007 1.643)" fill="#3d3d3d" stroke="#707070" stroke-width="1"/>
      <path id="Path-15" data-name="Path" d="M731.167,378.456l-10.642,2.3s0,16.834-3.041,23.721-8.362,22.956-6.081,23.721,23.566,11.478,25.086,5.357S741.81,378.456,731.167,378.456Z" transform="translate(751.921 96.219)" fill="#3d3d3d" stroke="#707070" stroke-width="1"/>
    </g>
    <ellipse id="Path-16" data-name="Path" cx="27.975" cy="28.159" rx="27.975" ry="28.159" transform="translate(1520.616 355.763)" fill="#3c3c3c" stroke="#707070" stroke-width="1"/>
    <path id="Path-17" data-name="Path" d="M841.857,282.248a27.911,27.911,0,0,1-43.2-14.786,28.123,28.123,0,0,0,18.329,23A27.841,27.841,0,0,0,845.65,284.4a28.285,28.285,0,0,0,7.577-28.482,28.23,28.23,0,0,1-11.371,26.334Z" transform="translate(730.864 124.992)" fill="#3c3c3c" stroke="#707070" stroke-width="1"/>
    <ellipse id="Path-18" data-name="Path" cx="20.515" cy="20.65" rx="20.515" ry="20.65" transform="translate(1505.23 405.041)" fill="#3c3c3c" stroke="#707070" stroke-width="1"/>
    <ellipse id="Path-19" data-name="Path" cx="18.184" cy="14.314" rx="18.184" ry="14.314" transform="translate(1490.31 403.633)" fill="#3c3c3c" stroke="#707070" stroke-width="1"/>
    <ellipse id="Path-20" data-name="Path" cx="3.451" cy="6.146" rx="3.451" ry="6.146" transform="translate(1500.192 426.469)" fill="#737373" stroke="#707070" stroke-width="1"/>
  </g>
</svg>
