<svg xmlns="http://www.w3.org/2000/svg" width="450.567" height="668.316" viewBox="0 0 450.567 668.316">
  <g id="Illustration" transform="translate(0)">
    <path id="Path" d="M704.337,291.527a28.988,28.988,0,0,1-19.927-5.287,54.667,54.667,0,0,1-14.291-15.329,99.326,99.326,0,0,1-13.986-32.5,19.05,19.05,0,0,1-18.562,6.458c-11.057-2.482-17.688-15.383-15.531-26.508s11.284-19.945,21.7-24.41,22.023-5.2,33.355-5.177c7.472.017,15.088.365,22.107,2.928s13.45,7.671,15.943,14.715c1.563,4.416,1.512,9.3,3.29,13.639,3.227,7.869,11.6,12.166,19.452,15.427s16.395,6.571,21.027,13.7c5.231,8.055,3.721,19.3-2.043,26.978s-15.023,12.136-24.445,14-19.128,1.4-28.721.934" transform="translate(-410.465 -188.775)" fill="#3c3c3c"/>
    <path id="Path-2" data-name="Path" d="M424.6,447.184l30.958-13.425-16.8-34.574-25,14.631Z" transform="translate(-44.965 161.556)" fill="#737373"/>
    <path id="Path-3" data-name="Path" d="M419.742,327.778l29.9,60.818,52.765,107.338,54.4-26.142-60.055-140.6-.17-17.7-.537-55.074Z" transform="translate(-154.634 103.686)" fill="#3d3d3d"/>
    <path id="Path-4" data-name="Path" d="M546.937,422.947l31.794,11.3,11.3-36.74-28.261-6.358Z" transform="translate(-366.614 158.301)" fill="#737373"/>
    <path id="Path-5" data-name="Path" d="M722.761,388.257,818.85,360.7l-28.261-19.076L716.4,364.941l-33.545,8.051A16.577,16.577,0,0,0,671.6,395.9h0a16.577,16.577,0,0,0,23.094,7.745Z" transform="translate(-535.372 -126.906)" fill="#737373"/>
    <path id="Path-6" data-name="Path" d="M680.049,374.123l38.859,22.609c3.429-28.275-13.476-78.606-34.62-133.535h0A42.254,42.254,0,0,0,667.2,303.1Z" transform="translate(-431.191 -158.657)" fill="#fbfbfb"/>
    <path id="Path-7" data-name="Path" d="M586.58,406.191l.817,29a16.725,16.725,0,0,0,21.046,15.685h0a16.725,16.725,0,0,0,10.881-23.115l-10.841-23.69-33.914-80.545-23.316,8.478Z" transform="translate(-170.273 -134.241)" fill="#737373"/>
    <ellipse id="Path-8" data-name="Path" cx="30.381" cy="30.381" rx="30.381" ry="30.381" transform="translate(228.015 15.213)" fill="#737373"/>
    <path id="Path-9" data-name="Path" d="M508.171,94.245,543.5,77.288,525.835,37.722,496.16,43.374Z" transform="translate(-248.716 15.291)" fill="#737373"/>
    <path id="Path-10" data-name="Path" d="M655.907,418.132l72.067-17.663L713.5,267.814a23.335,23.335,0,0,0-25.31-20.709l-23.807,2.164-32.5,14.837-12.011,12.718,3.665,15.673c-3.416,32.281-.783,60.293,17.985,76.916Z" transform="translate(-373.842 -165.17)" fill="#fbfbfb"/>
    <path id="Path-11" data-name="Path" d="M643.446,367.4l37.446-9.891-50.2-83.15A53.7,53.7,0,0,0,579.151,248.7h0l19.076,62.882C615.865,324.892,630.684,344.023,643.446,367.4Z" transform="translate(-269.532 -164.601)" fill="#fbfbfb"/>
    <path id="Path-12" data-name="Path" d="M604.656,678.426l57.229,16.957C731.573,582.248,831.36,460.326,792.595,378.855l-14.131-33.207-73.48,22.609-4.239,87.61-45.218,70.654Z" transform="translate(-425.746 -125.439)" fill="#3d3d3d"/>
    <path id="Path-13" data-name="Path" d="M729.985,653.35l50.86-.5a18.32,18.32,0,0,0,18.2-18.32V609.176a5.845,5.845,0,0,0-7.575-5.606c-9.187,2.945-16.708,1.965-22.38-3.374-3.4-3.2-3.8-3.844-7.844-1.515l-22.962,25.082-9.313.6a14.508,14.508,0,0,0-13.534,13.393h0a14.508,14.508,0,0,0,14.548,15.593Z" transform="translate(-579.155 -23.438)" fill="#3c3c3c"/>
    <path id="Path-14" data-name="Path" d="M588.9,685.035l35.61-36.317a18.32,18.32,0,0,0-.085-25.823L606.5,604.967a5.845,5.845,0,0,0-9.32,1.392c-4.414,8.579-10.425,13.2-18.211,13.439-4.667.141-5.4-.033-6.618,4.476l1.5,33.972-6.16,7.01a14.508,14.508,0,0,0-.1,19.04h0a14.508,14.508,0,0,0,21.313.739Z" transform="translate(-197.257 -21.025)" fill="#3c3c3c"/>
    <path id="Path-15" data-name="Path" d="M675.786,224.575a36.373,36.373,0,0,1-17.63,14.549c-5.161,1.988-11.711,2.481-15.584-1.466-2.806-2.859-3.366-7.26-2.968-11.247,1.243-12.444,10.6-23.279,22.2-27.942s25-3.643,36.58,1.077c10.926,4.454,21.3,13.578,21.891,25.362.3,6.039-1.886,12.689,1.356,17.793,2.442,3.844,7.157,5.406,11.381,7.109s8.757,4.389,9.624,8.859a9.913,9.913,0,0,1-2.908,8.451,22.947,22.947,0,0,1-7.813,4.9c-6.888,2.933-14.471,4.762-21.872,3.628s-14.557-5.641-17.453-12.545c-2.23-5.317-1.773-11.316-1.516-17.076s.179-11.894-2.9-16.771-10.215-7.607-14.811-4.126" transform="translate(-416.164 -186.07)" fill="#3c3c3c"/>
    <path id="Path-16" data-name="Path" d="M8.719,29.9H80.75a38.615,38.615,0,1,1,0,17.439H62.282v6.228a8.719,8.719,0,0,1-17.439,0V47.334H32.387V63.528a8.72,8.72,0,0,1-17.439,0V47.334H8.719a8.719,8.719,0,1,1,0-17.439Zm109.616,29.9A21.176,21.176,0,1,0,97.16,38.615,21.2,21.2,0,0,0,118.336,59.791Z" transform="translate(38.615 142.851) rotate(30)" fill="#3d3d3d"/>
  </g>
</svg>
